# xmcd
#
# Track frame offsets: 
#        150
#        27286
#        55332
#        77722
#        98439
#        122080
#        140011
#        162061
#        195827
#
# Disc length: 2865 seconds
#
# Revision: 0
# Processed by: cddbd v1.5.2PL0 Copyright (c) Steve Scherf et al.
# Submitted via: ExactAudioCopyFreeDBPlugin 1.0
#
DISCID=680b2f09
DTITLE=Prince - MPLSOUND
DYEAR=2009
DGENRE=Funk
TTITLE0=(There'll Never B) Another Like Me
TTITLE1=Chocolate Box
TTITLE2=Dance 4 Me
TTITLE3=U're Gonna C Me 
TTITLE4=Here
TTITLE5=Valentina
TTITLE6=Better With Time
TTITLE7=Ol' Skool Company
TTITLE8=No More Candy 4 U
EXTD=
EXTT0=
EXTT1=
EXTT2=
EXTT3=
EXTT4=
EXTT5=
EXTT6=
EXTT7=
EXTT8=
PLAYORDER=
